<svg width="37" height="37" viewBox="0 0 37 37" fill="none" xmlns="http://www.w3.org/2000/svg">
<path fill-rule="evenodd" clip-rule="evenodd" d="M18.5397 3.08301C10.0466 3.08301 3.16309 9.96655 3.16309 18.4596C3.16309 25.2522 7.56763 31.0165 13.6788 33.0515C14.4481 33.1902 14.7256 32.7169 14.7256 32.3099C14.7256 31.9445 14.7133 30.9764 14.7086 29.6953C10.4305 30.6233 9.52709 27.6325 9.52709 27.6325C8.83025 25.8565 7.82046 25.3832 7.82046 25.3832C6.42525 24.4289 7.92684 24.4505 7.92684 24.4505C9.47159 24.5584 10.281 26.0353 10.281 26.0353C11.653 28.3848 13.8823 27.7065 14.7549 27.3134C14.8952 26.319 15.296 25.6407 15.7338 25.2568C12.3206 24.8698 8.73159 23.5502 8.73159 17.6564C8.73159 15.9806 9.33129 14.6054 10.3103 13.5324C10.1545 13.1424 9.62267 11.5776 10.4629 9.46242C10.4629 9.46242 11.7533 9.04772 14.6901 11.0365C15.9444 10.6953 17.2383 10.5211 18.5381 10.5185C19.838 10.5206 21.1319 10.6948 22.3861 11.0365C25.3245 9.04617 26.6134 9.46242 26.6134 9.46242C27.4536 11.5776 26.9263 13.1424 26.766 13.5324C27.7527 14.6054 28.3447 15.979 28.3447 17.6564C28.3447 23.5656 24.7526 24.8637 21.327 25.2445C21.8743 25.7193 22.3676 26.6566 22.3676 28.0904C22.3676 30.147 22.3491 31.8058 22.3491 32.3099C22.3491 32.7215 22.6235 33.1995 23.4083 33.0484C29.5163 31.0103 33.9163 25.2506 33.9163 18.4596C33.9163 9.96655 27.0327 3.08301 18.5397 3.08301Z" fill="url(#paint0_linear_121_231)"/>
<defs>
<linearGradient id="paint0_linear_121_231" x1="18.5397" y1="3.08301" x2="18.5397" y2="33.0769" gradientUnits="userSpaceOnUse">
<stop stop-color="#2DD4BF"/>
<stop offset="1" stop-color="#22D3EE"/>
</linearGradient>
</defs>
</svg>
