<svg width="24" height="24" viewBox="0 0 24 24" fill="none" xmlns="http://www.w3.org/2000/svg">
<path d="M5.13171 22.9849H19.1317C19.6621 22.9849 20.1709 22.7741 20.5459 22.3991C20.921 22.024 21.1317 21.5153 21.1317 20.9849V11.9849C21.1325 11.8533 21.1073 11.7228 21.0575 11.601C21.0077 11.4791 20.9344 11.3683 20.8417 11.2749L12.8417 3.27486C12.6544 3.08861 12.4009 2.98407 12.1367 2.98407C11.8725 2.98407 11.6191 3.08861 11.4317 3.27486L3.43171 11.2749C3.33723 11.3675 3.26206 11.4779 3.21056 11.5998C3.15906 11.7217 3.13226 11.8526 3.13171 11.9849V20.9849C3.13171 21.5153 3.34243 22.024 3.7175 22.3991C4.09257 22.7741 4.60128 22.9849 5.13171 22.9849ZM10.1317 20.9849V15.9849H14.1317V20.9849H10.1317ZM5.13171 12.3949L12.1317 5.39486L19.1317 12.3949V20.9849H16.1317V15.9849C16.1317 15.4544 15.921 14.9457 15.5459 14.5706C15.1709 14.1956 14.6621 13.9849 14.1317 13.9849H10.1317C9.60128 13.9849 9.09257 14.1956 8.7175 14.5706C8.34243 14.9457 8.13171 15.4544 8.13171 15.9849V20.9849H5.13171V12.3949Z" fill="#14b8a6"/>
</svg>
