<svg width="49" height="30" viewBox="0 0 49 30" fill="none" xmlns="http://www.w3.org/2000/svg">
<path d="M21.5554 30H14.3734L4.4194 6.522C4.6714 8.594 4.8534 10.47 4.9654 12.15C5.1054 13.83 5.1754 15.832 5.1754 18.156V30H0.135398V0.977998H7.1494L17.2714 24.498C17.1034 23.378 16.9354 21.908 16.7674 20.088C16.5994 18.24 16.5154 16.406 16.5154 14.586V0.977998H21.5554V30ZM36.9221 0.977998C40.6461 0.977998 43.5301 1.748 45.5741 3.288C47.6461 4.828 48.6821 7.138 48.6821 10.218C48.6821 13.438 47.6461 15.86 45.5741 17.484C43.5021 19.08 40.7441 19.878 37.3001 19.878H33.8981V30H28.3541V0.977998H36.9221ZM36.8801 15.72C38.8681 15.72 40.3661 15.314 41.3741 14.502C42.3821 13.662 42.8861 12.234 42.8861 10.218C42.8861 6.774 40.8841 5.052 36.8801 5.052H33.8981V15.72H36.8801Z" fill="url(#paint0_linear_120_228)"/>
<defs>
<linearGradient id="paint0_linear_120_228" x1="23.25" y1="-9" x2="23.25" y2="41" gradientUnits="userSpaceOnUse">
<stop stop-color="#2DD4BF"/>
<stop offset="1" stop-color="#22D3EE"/>
</linearGradient>
</defs>
</svg>
