<svg width="37" height="38" viewBox="0 0 37 38" fill="none" xmlns="http://www.w3.org/2000/svg">
<path d="M30.2672 12.44C30.2873 12.7122 30.2873 12.9828 30.2873 13.2535C30.2873 21.5368 24.0389 31.0817 12.6198 31.0817C9.10167 31.0817 5.83334 30.0535 3.08301 28.2677C3.58251 28.3253 4.06351 28.3455 4.58305 28.3455C7.37808 28.3523 10.094 27.4093 12.2929 25.6684C10.997 25.6447 9.74081 25.2133 8.69967 24.4344C7.65852 23.6555 6.88442 22.568 6.48547 21.3237C6.86934 21.3813 7.25476 21.4202 7.65867 21.4202C8.21522 21.4202 8.77484 21.3424 9.29438 21.2071C7.88801 20.9206 6.6234 20.1514 5.71559 19.0304C4.80777 17.9093 4.31278 16.5056 4.3148 15.058V14.9802C5.14267 15.4453 6.10313 15.7362 7.12063 15.7751C6.26823 15.2035 5.56928 14.428 5.08616 13.5176C4.60303 12.6073 4.35074 11.5904 4.3518 10.5577C4.3518 9.39418 4.65859 8.32707 5.19663 7.39684C6.75701 9.33354 8.70316 10.9179 10.909 12.0474C13.1149 13.1769 15.5313 13.8263 18.0017 13.9535C17.9061 13.4868 17.8475 13.0031 17.8475 12.5177C17.8471 11.6948 18.0075 10.8798 18.3194 10.1194C18.6313 9.35905 19.0887 8.66816 19.6655 8.08625C20.2422 7.50433 20.9269 7.04282 21.6805 6.72808C22.4341 6.41334 23.2418 6.25154 24.0574 6.25195C25.8457 6.25195 27.4598 7.00795 28.5945 8.23062C29.9847 7.95936 31.3179 7.44728 32.535 6.71706C32.0716 8.165 31.1009 9.39278 29.8047 10.1704C31.0377 10.0285 32.2428 9.70132 33.3798 9.19973C32.5306 10.449 31.4782 11.5445 30.2672 12.44Z" fill="url(#paint0_linear_112_977)"/>
<defs>
<linearGradient id="paint0_linear_112_977" x1="18.2314" y1="6.25195" x2="18.2314" y2="31.0817" gradientUnits="userSpaceOnUse">
<stop stop-color="#2DD4BF"/>
<stop offset="1" stop-color="#22D3EE"/>
</linearGradient>
</defs>
</svg>
