<svg width="37" height="38" viewBox="0 0 37 38" fill="none" xmlns="http://www.w3.org/2000/svg">
<path d="M30.8333 4.66699H6.16667C5.75779 4.66699 5.36566 4.83088 5.07654 5.1226C4.78743 5.41433 4.625 5.80999 4.625 6.22255V31.1114C4.625 31.524 4.78743 31.9197 5.07654 32.2114C5.36566 32.5031 5.75779 32.667 6.16667 32.667H30.8333C31.2422 32.667 31.6343 32.5031 31.9235 32.2114C32.2126 31.9197 32.375 31.524 32.375 31.1114V6.22255C32.375 5.80999 32.2126 5.41433 31.9235 5.1226C31.6343 4.83088 31.2422 4.66699 30.8333 4.66699ZM12.856 28.5245H8.73662V15.1623H12.856V28.5245ZM10.7963 13.3377C10.1634 13.3377 9.55634 13.084 9.10878 12.6324C8.66123 12.1808 8.40979 11.5683 8.40979 10.9297C8.40979 10.291 8.66123 9.67853 9.10878 9.22695C9.55634 8.77536 10.1634 8.52166 10.7963 8.52166C11.4292 8.52166 12.0362 8.77536 12.4838 9.22695C12.9314 9.67853 13.1828 10.291 13.1828 10.9297C13.1828 11.5683 12.9314 12.1808 12.4838 12.6324C12.0362 13.084 11.4292 13.3377 10.7963 13.3377ZM28.2711 28.5245H24.1564V22.027C24.1564 20.4777 24.1286 18.485 22.0165 18.485C19.8736 18.485 19.5483 20.1743 19.5483 21.9181V28.5261H15.4367V15.1639H19.3834V16.9901H19.4404C19.9877 15.9401 21.332 14.8325 23.3316 14.8325C27.5002 14.8325 28.2695 17.5983 28.2695 21.1979V28.5245H28.2711Z" fill="url(#paint0_linear_112_973)"/>
<defs>
<linearGradient id="paint0_linear_112_973" x1="18.5" y1="4.66699" x2="18.5" y2="32.667" gradientUnits="userSpaceOnUse">
<stop stop-color="#2DD4BF"/>
<stop offset="1" stop-color="#22D3EE"/>
</linearGradient>
</defs>
</svg>
