<svg width="38" height="38" viewBox="0 0 38 38" fill="none" xmlns="http://www.w3.org/2000/svg">
<path d="M29.0564 8.55732L27.083 10.099L18.681 16.3427L10.2789 10.0373L8.30554 8.49565C7.84066 8.11108 7.27316 7.87134 6.67336 7.80614C6.07356 7.74095 5.46781 7.85315 4.93115 8.12887C4.3945 8.40458 3.95053 8.83168 3.65424 9.35725C3.35795 9.88282 3.22237 10.4838 3.26429 11.0857V28.9536C3.26429 29.5096 3.48519 30.0429 3.87839 30.4361C4.27159 30.8293 4.80488 31.0502 5.36096 31.0502H10.2789V19.1486L18.681 25.454L27.083 19.1486V31.0502H32.001C32.557 31.0502 33.0903 30.8293 33.4835 30.4361C33.8767 30.0429 34.0976 29.5096 34.0976 28.9536V11.0857C34.1266 10.489 33.9816 9.89673 33.6802 9.38091C33.3789 8.8651 32.9342 8.44793 32.4002 8.18012C31.8662 7.91231 31.2659 7.80539 30.6723 7.87235C30.0787 7.93931 29.5173 8.17728 29.0564 8.55732V8.55732Z" fill="url(#paint0_linear_121_233)"/>
<defs>
<linearGradient id="paint0_linear_121_233" x1="18.679" y1="7.78809" x2="18.679" y2="31.0502" gradientUnits="userSpaceOnUse">
<stop stop-color="#2DD4BF"/>
<stop offset="1" stop-color="#22D3EE"/>
</linearGradient>
</defs>
</svg>
